<svg xmlns="http://www.w3.org/2000/svg" viewBox="0 0 256 256"><defs><style>.cls-1{fill:#fff;}</style></defs><title>Ресурс 12</title><g id="Слой_2" data-name="Слой 2"><g id="Слой_1-2" data-name="Слой 1"><rect class="cls-1" width="256" height="256"/><path d="M190.43,95.44C185.7,74.57,180.22,65,180.22,65,169.07,55,151.15,48,150.28,47.61a2,2,0,0,0-1.88.21c-.15.1-4.45,4.3-20.4,4.3h0c-16,0-20.26-4.21-20.4-4.3a2,2,0,0,0-1.88-.21C104.85,48,85.59,55,75.78,65c-.31.31-5.48,9.54-10.21,30.41-4.33,19.1-9,52.11-6.74,100.94v10.14a2,2,0,0,0,2,2H79.14a2,2,0,0,0,2-1.65L83,196.76l3.69-15.57c.54,2.21,1.16,4.33,1.87,6.34L90.35,198a2,2,0,0,0,2,1.67h71.32a2,2,0,0,0,2-1.67l1.82-10.46c.7-2,1.33-4.13,1.87-6.34L173,196.76l1.84,10.12a2,2,0,0,0,2,1.65h18.29a2,2,0,0,0,2-2V196.38C199.45,147.55,194.76,114.54,190.43,95.44ZM128,56.16h0c9.61,0,15.4-1.38,18.79-2.74C144.47,59.53,136.93,64,128,64h0c-8.93,0-16.48-4.5-18.79-10.61C112.6,54.78,118.39,56.16,128,56.16Zm4.34,11.58L128,72.39l-4.34-4.65a29.36,29.36,0,0,0,4.34.32h0A29.46,29.46,0,0,0,132.34,67.74ZM77.46,204.5H62.87v-6.14H78.58ZM85.71,98.58c-1.75,19.36-4.45,49.2-.92,73L79.4,194.32H62.78c-2.05-47.16,2.47-79.11,6.65-97.68C73,80.93,76.86,71.92,78.49,68.57c2.76,1.3,8.36,5.07,8.36,14.36C86.85,86,86.35,91.57,85.71,98.58Zm8.33,97-1.15-6.57h70.22L162,195.62Zm73.14-24.34s-1.76,9.58-3.12,13.74H91.94c-1.36-4.15-3.11-13.71-3.12-13.74C85.3,148,88,118.2,89.73,99c.65-7.12,1.15-12.74,1.15-16,0-10.41-5.94-15.37-9.74-17.48,6.69-5.53,18.49-10.88,23.59-13.06C105.85,58,110.1,62.7,116,65.47l10.52,11.25a2,2,0,0,0,1.47.64,2,2,0,0,0,1.38-.54L140,65.47c5.91-2.77,10.16-7.52,11.27-13.08,5.11,2.18,16.91,7.53,23.6,13.06-3.81,2.11-9.74,7.07-9.74,17.48,0,3.28.5,8.9,1.15,16C168,118.2,170.7,148,167.18,171.28Zm25.95,33.22H178.54l-1.12-6.14h15.71v6.14Zm.09-10.18H176.6l-5.39-22.74c3.53-23.81.83-53.64-.92-73-.64-7-1.14-12.55-1.14-15.65,0-9.29,5.6-13.06,8.36-14.36C181.21,76.23,196.73,113.55,193.22,194.32Z"/></g></g></svg>