<svg xmlns="http://www.w3.org/2000/svg" viewBox="0 0 256 256"><defs><style>.cls-1{fill:#fff;}</style></defs><title>Ресурс 13</title><g id="Слой_2" data-name="Слой 2"><g id="Слой_1-2" data-name="Слой 1"><rect class="cls-1" width="256" height="256"/><path d="M191.25,95c-4.79-21.14-10.34-30.81-10.34-30.81C169.61,54,151.46,46.9,150.57,46.55a2,2,0,0,0-1.9.21c-.16.11-4.51,4.36-20.67,4.36h0c-16.2,0-20.53-4.26-20.67-4.36a2,2,0,0,0-1.9-.21C104.54,46.9,85,54,75.09,64.2c-.31.32-5.55,9.67-10.34,30.81-4.39,19.35-9.13,52.8-6.83,102.27v10.27a2,2,0,0,0,2,2H78.5a2,2,0,0,0,2-1.68l1.87-10.25,3.73-15.77q.84,3.36,1.9,6.43l1.85,10.59a2,2,0,0,0,2,1.69h72.26a2,2,0,0,0,2-1.69L168,188.32q1.06-3.07,1.9-6.43l3.73,15.77,1.87,10.25a2,2,0,0,0,2,1.68H196a2,2,0,0,0,2.05-2V197.28C200.39,147.81,195.64,114.36,191.25,95ZM128,55.21h0c9.74,0,15.61-1.39,19-2.77-2.34,6.19-10,10.74-19,10.74h0c-9,0-16.69-4.55-19-10.74C112.39,53.82,118.26,55.21,128,55.21ZM132.4,67,128,71.66,123.6,67a30.28,30.28,0,0,0,4.4.32h0A30.28,30.28,0,0,0,132.4,67ZM76.79,205.5H62v-6.22H77.93Zm16.8-9-1.16-6.65h71.14l-1.16,6.65Zm74.1-24.66s-1.78,9.71-3.15,13.92H91.46c-1.37-4.21-3.15-13.89-3.16-13.93-3.56-23.62-.84-53.77.93-73.28.65-7.21,1.17-12.9,1.17-16.23,0-10.54-6-15.57-9.87-17.71,6.77-5.59,18.72-11,23.9-13.23,1.13,5.64,5.43,10.45,11.42,13.25l10.66,11.41a2,2,0,0,0,1.49.65,2.1,2.1,0,0,0,1.4-.55l10.75-11.51c6-2.8,10.29-7.61,11.42-13.25,5.18,2.22,17.13,7.63,23.9,13.23-3.85,2.14-9.87,7.17-9.87,17.71,0,3.33.52,9,1.17,16.23C168.54,118.07,171.26,148.23,167.69,171.85ZM194,205.5H179.21l-1.14-6.22H194v6.22Z"/></g></g></svg>