<svg xmlns="http://www.w3.org/2000/svg" viewBox="0 0 256 256"><defs><style>.cls-1{fill:#fff;}</style></defs><title>Ресурс 22</title><g id="Слой_2" data-name="Слой 2"><g id="Слой_1-2" data-name="Слой 1"><rect class="cls-1" width="256" height="256"/><path d="M208.18,103.7c-.07-.09-5.54-8-11.84-15.82-12-14.83-16.85-16.73-19.74-16.73H161l-.28,0-.29,0-.36.1-.18.08-.48.26-.31.24-.39.43-.08.11-.09.15-.05.09a1.63,1.63,0,0,0-.15.32,1.59,1.59,0,0,0-.07.2l-.06.22c0,.19-4.88,19.52-30.23,19.52-10.65,0-19-3.27-24.7-9.72a25.9,25.9,0,0,1-5.53-9.8l0-.22-.1-.26a3.13,3.13,0,0,0-.16-.32l-.12-.19,0-.08-.13-.16-.06-.07L97,72l-.08-.07-.2-.17-.61-.35-.17-.06-.09,0-.25-.07-.11,0-.17,0-.13,0H79.4c-2.89,0-7.74,1.9-19.74,16.73-6.3,7.78-11.79,15.75-11.84,15.83a2.92,2.92,0,0,0,.62,4l22.24,17.14c-3.56,15.28-.92,58.31.09,59.82l.11.16.17,0a3.13,3.13,0,0,0,.44,0h113l.2,0,.11-.13c1.23-1.51,1.29-56,.7-58.94-.06-.32-.13-.64-.2-1l22.24-17.14A2.93,2.93,0,0,0,208.18,103.7ZM158.71,87.38h0l-.38.11-.48,4.16-.12.81L157,96.14c-.06.24-.11.48-.17.72l.36.09-.39,0-.22.82-1.18,3.68c-.1.27-.2.55-.31.81l-.07.17c-.08.22-.17.43-.26.65l-.13.29c-.07.17-.15.35-.23.52l-.53,1.12c-.08.17-.17.34-.26.5l-.14.29-.38.68-.05.09c-.14.26-.29.51-.44.76l-.13.21-.34.54-.18.27c-.1.16-.21.31-.32.47l-.2.28q-.15.23-.33.45l-.2.27-.41.54-.13.16c-.19.23-.38.46-.58.68C144.7,117.05,137.37,120,128,120c-1.17,0-2.32,0-3.43-.14-7.73-.65-13.9-3.54-18.34-8.61-.19-.23-.39-.45-.57-.68l-.18-.23-.37-.47-.2-.27-.33-.45-.2-.28c-.1-.16-.21-.31-.32-.47l-.17-.27c-.12-.18-.23-.35-.34-.54l-.13-.21c-.16-.25-.3-.5-.45-.76l-.09-.17-.33-.6-.56-1.1c-.08-.16-.16-.33-.26-.56l-.47-1.06-.3-.72,0-.09-.31-.81-1.17-3.68c-.08-.28-.15-.55-.22-.83l-.36.1h0l.33-.23-.17-.7-.73-3.69c-.05-.27-.09-.54-.13-.81l-.11-.81-.5-5.43c.38.5.79,1,1.2,1.46,4.74,5.42,13.66,11.89,29.25,11.89s24.51-6.47,29.26-11.89q.62-.72,1.2-1.47l-.12,1.93Zm-63.06,17.5c.16.41.34.81.52,1.21l.11.24c.17.39.36.78.55,1.17l.1.2c.18.36.37.72.56,1.08l.07.14c.21.38.43.76.65,1.14l.15.24c.22.37.45.75.7,1.12l.08.12c.23.34.46.68.75,1.09l.09.13.79,1,.17.21c.29.36.58.71.88,1s.39.45.59.66c.6.65,1.23,1.27,1.87,1.85.43.4.87.77,1.32,1.14,5.84,4.72,13.38,7.11,22.4,7.11,11.13,0,19.94-3.62,26.18-10.76q.45-.51.87-1l.17-.21c.28-.35.54-.7.8-1l.14-.2c.24-.33.47-.67.73-1.06l.05-.08c.24-.37.48-.75.7-1.12l.15-.24c.22-.38.43-.76.64-1.14l.08-.14c.19-.36.38-.72.56-1.08l.1-.2c.19-.39.37-.78.55-1.17l.11-.24c.18-.4.36-.8.53-1.23s.32-.8.47-1.2l.09-.25c.15-.39.29-.79.42-1.19l.08-.22c.12-.38.25-.76.36-1.14l0-.13c.13-.4.24-.81.35-1.21l.08-.26c.11-.4.21-.8.31-1.21l0-.15c.09-.38.18-.75.28-1.2l0-.13c.08-.4.17-.79.24-1.19l0-.25c.08-.4.15-.8.23-1.23s.13-.79.19-1.18l0-.23c.06-.39.11-.77.16-1.15l0-.21c0-.37.09-.73.13-1.09v-.1l.12-1.13,0-.23.09-1.09v-.14l.06-1v-.15l.06-1V85c0-.35,0-.69,0-1s0-.67,0-1v-.16c0-.32,0-.63,0-.94V80.76c0-.3,0-.59,0-.87l0-1c0-.27,0-.53,0-.83L164.27,77H176.6c.14,0,3.55.17,15.19,14.54,4.18,5.17,8,10.39,10,13.22l-17.92,13.81-2.15-9.34a3,3,0,0,0-1.3-1.82,2.88,2.88,0,0,0-2.2-.36,2.92,2.92,0,0,0-2.19,3.5l3.07,13.28a2.93,2.93,0,0,0,.11.7q.13.42.24.84l.39,1.7c.93,4.61,2.17,42.37-2.4,53.45h-99c-5.53-5.45-4.48-42.87-2.24-53.69l.33-1.41c.08-.3.16-.6.25-.89a2.42,2.42,0,0,0,.1-.63L80,110.53a2.92,2.92,0,0,0-5.69-1.31l-2.15,9.34L54.22,104.75c2-2.83,5.81-8,10-13.2C75.85,77.16,79.26,77,79.4,77H91.73L91.6,79.9c0,.28,0,.56,0,.92v1c0,.3,0,.6,0,.91v.19c0,.32,0,.63,0,1l0,1v.21c0,.34,0,.68,0,1v.17c0,.33.05.66.07,1v.14l.09,1.09,0,.23c0,.37.07.75.12,1.13V90c0,.36.08.72.13,1.09l0,.21c0,.38.1.76.16,1.15l0,.23c.06.39.12.78.2,1.21s.14.8.23,1.29l0,.16c.08.39.17.79.25,1.19l0,.2c.08.37.17.75.27,1.18l0,.1c.1.41.2.81.31,1.21l.07.26c.12.4.23.81.35,1.21l0,.13c.12.38.24.76.37,1.14l.07.22c.14.4.28.8.43,1.19l.09.25C95.32,104.06,95.48,104.46,95.65,104.88ZM92.09,86.33Zm69.37,14.29Zm-2.33-28.19Zm-.51,1ZM95.71,71.65Z"/></g></g></svg>