<svg xmlns="http://www.w3.org/2000/svg" viewBox="0 0 256 256"><defs><style>.cls-1{fill:#fff;}</style></defs><title>Ресурс 23</title><g id="Слой_2" data-name="Слой 2"><g id="Слой_1-2" data-name="Слой 1"><rect class="cls-1" width="256" height="256"/><path d="M196.57,191.09V139a19.22,19.22,0,0,0-19.2-19.2h-1.6l-4.69-4.69a43.9,43.9,0,0,1-12.91-31,2.74,2.74,0,0,0-2.74-2.74v-22a2.74,2.74,0,0,0-.8-1.93l-11-11a2.74,2.74,0,0,0-1.93-.8H114.29a2.75,2.75,0,0,0-1.94.8l-11,11a2.74,2.74,0,0,0-.8,1.93v22h0a2.72,2.72,0,0,0-1.94.81,2.67,2.67,0,0,0-.8,1.94,43.91,43.91,0,0,1-12.75,30.94l-4.83,4.71H78.63A19.22,19.22,0,0,0,59.43,139v52.12A13.73,13.73,0,0,1,45.71,204.8v5.49a19.22,19.22,0,0,0,19.2-19.2V139a13.73,13.73,0,0,1,13.72-13.71v82.29a2.74,2.74,0,0,0,2.74,2.74h93.26a2.74,2.74,0,0,0,2.74-2.74V125.26h0A13.73,13.73,0,0,1,191.09,139v52.12a19.22,19.22,0,0,0,19.2,19.2V204.8A13.73,13.73,0,0,1,196.57,191.09ZM149.94,81.37h-5.48V55.07l5.48,5.49ZM139,56.68H117V51.2H139ZM117,62.17H139v19.2H117Zm-11-1.61,5.48-5.49v26.3h-5.48ZM171.89,204.8H84.11V123.67l4.82-4.7a49.46,49.46,0,0,0,14.31-32.12h49.52A49.46,49.46,0,0,0,167.21,119l4.68,4.68Z"/></g></g></svg>