<svg xmlns="http://www.w3.org/2000/svg" viewBox="0 0 256 256"><defs><style>.cls-1{fill:#fff;}</style></defs><title>Ресурс 14</title><g id="Слой_2" data-name="Слой 2"><g id="Слой_1-2" data-name="Слой 1"><rect class="cls-1" width="256" height="256"/><path d="M118.2,138.12a2,2,0,0,1-2-2V83.31a10.17,10.17,0,0,0-.54-4.14,2,2,0,0,1,1.53-3.65c1.39.3,3,1.89,3,7.79v52.8A2,2,0,0,1,118.2,138.12Z"/><path d="M137.79,138.12a2,2,0,0,1-2-2V83.31c0-5.9,1.65-7.49,3-7.79a2,2,0,0,1,1.54,3.65,10.17,10.17,0,0,0-.54,4.14v52.8A2,2,0,0,1,137.79,138.12Z"/><path d="M192.35,194.29c-1.42-46.13-7-74.94-11.42-91-4.68-17-9.06-23.67-9.54-24.38s-4.67-7-14.89-10.18a13.52,13.52,0,0,0,2.14-7.26c0-3.92-1.93-7.62-5.63-11-3.88-3.4-12.45-6.11-25-6.11h0c-12.56,0-20.55,2.27-25,6.1h0c-3.7,3.4-5.6,7.1-5.64,11a13.6,13.6,0,0,0,2.15,7.26c-10.22,3.13-14.41,9.41-14.89,10.18s-4.86,7.41-9.54,24.38c-4.43,16-10,44.86-11.42,91v13.46a2,2,0,0,0,1.72,2s13.17,1.9,13.26,1.9a2,2,0,0,0,1.9-1.36L85,197.41l1.52-5.08,1.94,8.54a2,2,0,0,0,2,1.56h75.24a2,2,0,0,0,2-1.56l1.94-8.54,1.52,5.08,4.42,12.87a2,2,0,0,0,1.91,1.36c.09,0,13.26-1.9,13.26-1.9a2,2,0,0,0,1.72-2ZM105.47,53.71c1.7-2,6.84-5.33,22.53-5.33h0c15.37,0,20.58,3.27,22.38,5.15a3.56,3.56,0,0,1,.76,3.84c-.25,0-3.76-.47-6-.61-4.58-.29-10.66-.45-17.12-.45s-12.54.16-17.12.45c-2.27.14-5.77.57-6,.61A3.21,3.21,0,0,1,105.47,53.71ZM116,66.81c-1.63-1.29-7-5.08-7.93-5.8,3.69-.35,10.51-.68,20-.68s16.29.33,20,.68c-.91.72-6.3,4.51-7.93,5.8Zm19.63,4A34.19,34.19,0,0,0,128,83.11a34.34,34.34,0,0,0-7.58-12.28ZM77.27,207.4,67.67,206v-9.35l12.69,1.76Zm7.94-24.84-3.59,12-13.89-1.92c1.49-44.38,6.84-72.2,11.1-87.8C81.77,94,84.6,87.48,86.31,84.09c6.87,13.94,1,31.59,1,31.67C82.88,135.9,84.36,169.1,85.21,182.56ZM164,198.41H92l-1.84-8.11h75.7Zm2.49-12.13h-77c-.64-8.89-3-47.74,1.68-69.56.62-1.87,6.72-21.25-2.46-36.62,1.53-1.88,5.65-6,13.68-8a60.21,60.21,0,0,0,5.95,4.57,2,2,0,1,0,2.17-3.39,59.74,59.74,0,0,1-6.2-4.85,10.63,10.63,0,0,1-2.94-6.93,7.52,7.52,0,0,1,.2-1.7c1.49,2.73,4.28,4.69,7.39,6.86a57.28,57.28,0,0,1,8.14,6.52,30.39,30.39,0,0,1,7.63,13c.93,1.59,5.32,2.6,6.87-.5a30.36,30.36,0,0,1,7.28-12.48A57.28,57.28,0,0,1,147,66.68c3.11-2.17,5.9-4.13,7.39-6.86a8.55,8.55,0,0,1,.2,1.66,10.67,10.67,0,0,1-2.94,7,61,61,0,0,1-6.2,4.84,2,2,0,0,0-.61,2.78,2,2,0,0,0,2.78.61,60.21,60.21,0,0,0,5.95-4.57c8,2,12.16,6.1,13.68,8-9.18,15.37-3.08,34.75-2.46,36.62C169.55,138.54,167.14,177.39,166.5,186.28Zm7.88,8.25-3.59-12c.85-13.47,2.33-46.66-2.06-66.8,0-.08-5.91-17.73,1-31.67,4.38,8.72,16.23,38.47,18.58,108.52Zm14,11.48-9.6,1.39-3.09-9,12.69-1.76Z"/></g></g></svg>