<svg xmlns="http://www.w3.org/2000/svg" viewBox="0 0 256 256"><defs><style>.cls-1{fill:#fff;}</style></defs><title>Ресурс 17</title><g id="Слой_2" data-name="Слой 2"><g id="Слой_1-2" data-name="Слой 1"><rect class="cls-1" width="256" height="256"/><path d="M117.86,138.48a2.09,2.09,0,0,1-2.08-2.09V81.73a10.62,10.62,0,0,0-.56-4.28,2.08,2.08,0,0,1,1.58-3.78c1.43.31,3.14,2,3.14,8.06v54.66A2.09,2.09,0,0,1,117.86,138.48Z"/><path d="M138.14,138.48a2.09,2.09,0,0,1-2.08-2.09V81.73c0-6.1,1.7-7.75,3.14-8.06a2.08,2.08,0,0,1,1.58,3.78,10.62,10.62,0,0,0-.56,4.28v54.66A2.09,2.09,0,0,1,138.14,138.48Z"/><path d="M194.62,196.63c-1.47-47.76-7.24-77.59-11.82-94.2-4.84-17.56-9.38-24.51-9.88-25.24s-4.83-7.3-15.41-10.53a14.23,14.23,0,0,0,2.22-7.53c0-4.05-2-7.88-5.84-11.39-4-3.52-12.89-6.33-25.89-6.33h0c-13,0-21.28,2.35-25.89,6.32h0c-3.83,3.51-5.8,7.35-5.84,11.4a14.14,14.14,0,0,0,2.22,7.53C87.91,69.89,83.58,76.4,83.08,77.19s-5,7.68-9.88,25.24c-4.58,16.61-10.35,46.44-11.82,94.2v13.93a2.09,2.09,0,0,0,1.78,2.06s13.63,2,13.73,2a2.07,2.07,0,0,0,2-1.41l4.58-13.32S85,194.59,85,194.59l2,8.85a2.1,2.1,0,0,0,2,1.62H167a2.1,2.1,0,0,0,2-1.62l2-8.85s1.58,5.26,1.58,5.27l4.58,13.32a2.07,2.07,0,0,0,2,1.41c.1,0,13.73-2,13.73-2a2.09,2.09,0,0,0,1.78-2.06ZM104.67,51.09c1.76-2,7.08-5.52,23.33-5.52h0c15.92,0,21.3,3.38,23.16,5.33a3.65,3.65,0,0,1,.79,4c-.25,0-3.88-.48-6.23-.63-4.74-.3-11-.47-17.72-.47s-13,.17-17.72.47c-2.35.15-6,.59-6.24.63A3.36,3.36,0,0,1,104.67,51.09Zm10.86,13.56c-1.69-1.34-7.27-5.26-8.21-6,3.82-.36,10.87-.7,20.68-.7s16.86.34,20.68.7c-.94.74-6.52,4.66-8.21,6Zm20.32,4.17A35.33,35.33,0,0,0,128,81.53a35.47,35.47,0,0,0-7.85-12.71ZM75.48,210.2l-9.94-1.44v-9.67l13.14,1.81Zm8.22-25.71L80,196.88l-14.39-2C67.14,149,72.68,120.14,77.09,104c3-11.17,6-18,7.75-21.46,7.11,14.43,1,32.71,1,32.78C81.28,136.18,82.82,170.55,83.7,184.49Zm81.58,16.4H90.72l-1.9-8.39h78.36Zm-35.2-50.34H148c1.76,14.09,8.89,26.27,10.56,29v8.81H97.43v-8.81c1.67-2.7,8.8-14.88,10.56-29h22.09Zm37.78,37.78h-5.12v-9.42a2.05,2.05,0,0,0-.34-1.13c-.09-.14-9.09-14.11-10.44-29.49a2.09,2.09,0,0,0-2.08-1.9H106.12a2.09,2.09,0,0,0-2.08,1.9c-1.36,15.38-10.35,29.35-10.44,29.49a2.05,2.05,0,0,0-.34,1.13v9.42H88.14c-.66-9.19-3.15-49.42,1.74-72,.65-1.93,7-22-2.54-37.91,1.58-2,5.85-6.21,14.16-8.26a61.29,61.29,0,0,0,6.16,4.73,2.07,2.07,0,0,0,2.87-.63,2.08,2.08,0,0,0-.63-2.88,63.6,63.6,0,0,1-6.41-5,11,11,0,0,1-3-7.19,8.71,8.71,0,0,1,.21-1.75c1.54,2.82,4.43,4.85,7.65,7.1a59.07,59.07,0,0,1,8.43,6.75,31.5,31.5,0,0,1,8,13.69,2.6,2.6,0,0,1,.65.48,4,4,0,0,0,5.62-.23,2.85,2.85,0,0,1,.59-.43,31.9,31.9,0,0,1,7.72-13.51,59.07,59.07,0,0,1,8.43-6.75c3.22-2.25,6.11-4.28,7.65-7.1a8.34,8.34,0,0,1,.21,1.72,11,11,0,0,1-3.05,7.22,63,63,0,0,1-6.41,5,2.08,2.08,0,0,0,1.12,3.84,2.06,2.06,0,0,0,1.12-.33,61.29,61.29,0,0,0,6.16-4.73c8.32,2,12.59,6.32,14.16,8.26-9.5,15.91-3.18,36-2.54,37.91C171,138.91,168.52,179.14,167.86,188.33Zm8.15,8.55-3.71-12.4c.88-13.94,2.42-48.3-2.14-69.16,0-.07-6.11-18.35,1-32.78,4.53,9,16.8,39.83,19.24,112.35Zm14.45,11.88-9.94,1.44-3.2-9.3,13.14-1.81Z"/></g></g></svg>