<svg xmlns="http://www.w3.org/2000/svg" viewBox="0 0 256 256"><defs><style>.cls-1{fill:#fff;}</style></defs><title>Ресурс 15</title><g id="Слой_2" data-name="Слой 2"><g id="Слой_1-2" data-name="Слой 1"><rect class="cls-1" width="256" height="256"/><path d="M209.56,118.45,171.9,78.21l-.06-.06a21.11,21.11,0,0,0-10.17-5.47l-12.32-2.14v-.65h0l-1-14.11a2.63,2.63,0,0,0-2.62-2.44H110.32a2.62,2.62,0,0,0-2.62,2.44l-1,14.76L94.33,72.68A21.05,21.05,0,0,0,84.1,78.21L46.44,118.45a2.58,2.58,0,0,0-.71,1.79v56.19a2.62,2.62,0,0,0,2.63,2.62H71.84a2.62,2.62,0,0,0,2.62-2.62V135.22L87,122v78a2.63,2.63,0,0,0,2.36,2.62h78.27a2.74,2.74,0,0,0-.05-.28A2.61,2.61,0,0,0,169,200V122l12.52,13.19v41.21a2.62,2.62,0,0,0,2.62,2.62h23.48a2.62,2.62,0,0,0,2.63-2.62V120.24A2.58,2.58,0,0,0,209.56,118.45ZM143.24,58.59h0l.79,11.3H112l.79-11.3Zm-51,131.9h71.54v6.76l-71.54.41ZM203.4,173.8H186.79V120.24a2.63,2.63,0,1,0-5.25,0v7.35l-12.73-13.4c-.68-.23-1.38-.44-2.09-.61-.14,0-.29-.06-.44-.09h-.71l-.89.28-.12,0-.15.1a7.25,7.25,0,0,0-.89,1.59l.25.53v69.22H92.23V116l.21-.45c0-.09-.06-.18-.1-.27a1.37,1.37,0,0,0-.18-.44c-.19-.38-.39-.74-.6-1.1l-.15-.27-.15-.16c-.07-.07-.42-.33-.51-.42-.3-.14-.71-.31-.18-.12l-.27-.12H90c-.14,0-1.09.09-.84,0a5.38,5.38,0,0,1-1.26.08L87.4,114,74.46,127.59v-7.35a2.63,2.63,0,1,0-5.25,0V173.8H51V121.28l37-39.48a15.86,15.86,0,0,1,7.3-3.94l9.44-1.64L96.1,100.81c.26.71.49,1.42.68,2.15.51.13,1,.25,1.53.35h.11l.84.05c.29,0,1.3-.12,1.32-.08l.19-.06,10.16-27.74h34.28l7.36,25.25a2.63,2.63,0,0,0,2.39,1.53,2.69,2.69,0,0,0,1.09-.24,2.62,2.62,0,0,0,1.29-3.48l-6-22.33,9.44,1.64a15.78,15.78,0,0,1,7.29,3.94l.06,0L205,121.28V173.8Z"/></g></g></svg>