<svg xmlns="http://www.w3.org/2000/svg" viewBox="0 0 256 256"><defs><style>.cls-1{fill:#fff;}</style></defs><title>Ресурс 16</title><g id="Слой_2" data-name="Слой 2"><g id="Слой_1-2" data-name="Слой 1"><rect class="cls-1" width="256" height="256"/><path d="M117.71,138.64a2.12,2.12,0,0,1-2.12-2.12V81c0-2.91-.41-4-.57-4.35a2.11,2.11,0,0,1,1.61-3.83c1.46.32,3.19,2,3.19,8.18v55.49A2.12,2.12,0,0,1,117.71,138.64Z"/><path d="M138.29,138.64a2.11,2.11,0,0,1-2.11-2.12V81c0-6.19,1.73-7.86,3.19-8.18A2.11,2.11,0,0,1,141,76.68c-.16.32-.57,1.44-.57,4.35v55.49A2.12,2.12,0,0,1,138.29,138.64Z"/><path d="M195.63,197.67c-1.5-48.49-7.35-78.76-12-95.62-4.92-17.83-9.53-24.89-10-25.63S168.69,69,158,65.73a14.32,14.32,0,0,0,2.26-7.64c-.05-4.11-2-8-5.92-11.57C150.21,43,141.2,40.1,128,40.1h0c-13.2,0-21.6,2.39-26.28,6.42h0c-3.89,3.56-5.89,7.45-5.93,11.57a14.32,14.32,0,0,0,2.26,7.64C87.31,69,82.9,75.62,82.4,76.42s-5.11,7.79-10,25.63c-4.65,16.86-10.5,47.13-12,95.62v14.14a2.11,2.11,0,0,0,1.81,2.09s13.84,2,13.94,2a2.11,2.11,0,0,0,2-1.43L82.77,201l1.6-5.35,2,9a2.12,2.12,0,0,0,2.06,1.64h79.07a2.12,2.12,0,0,0,2.07-1.64l2-9,1.6,5.35,4.65,13.52a2.11,2.11,0,0,0,2,1.43c.1,0,13.94-2,13.94-2a2.11,2.11,0,0,0,1.81-2.09ZM104.32,49.92c1.79-2.07,7.19-5.59,23.68-5.59h0c16.16,0,21.62,3.43,23.51,5.41a3.73,3.73,0,0,1,.81,4c-.26-.05-3.95-.5-6.33-.65-4.81-.3-11.2-.47-18-.47s-13.18.17-18,.47c-2.38.15-6.07.6-6.33.65A3.42,3.42,0,0,1,104.32,49.92ZM149,57.6c-1,.76-6.62,4.73-8.33,6.09H115.34c-1.71-1.36-7.38-5.33-8.33-6.09,3.87-.37,11-.71,21-.71S145.12,57.23,149,57.6ZM74.69,211.44,64.6,210v-9.82L77.93,202ZM85.2,115.13c-4.62,21.17-3.06,56.06-2.17,70.21l-3.77,12.58-14.6-2c1.56-46.64,7.19-75.88,11.66-92.27,3.1-11.33,6.07-18.21,7.87-21.77C91.4,96.5,85.21,115.05,85.2,115.13ZM125.88,202H90.15l-1.93-8.52h37.66Zm0-12.74H97V180.3c1.7-2.74,8.94-15.1,10.72-29.41h18.2v38.36Zm0-42.58h-20.1a2.1,2.1,0,0,0-2.1,1.93c-1.38,15.61-10.51,29.79-10.6,29.93a2,2,0,0,0-.34,1.15v9.57h-5.2c-.67-9.34-3.2-50.17,1.76-73.1.66-2,7.07-22.34-2.58-38.49,1.61-2,5.94-6.31,14.38-8.39a61.93,61.93,0,0,0,6.25,4.8,2.08,2.08,0,0,0,1.14.34,2.11,2.11,0,0,0,1.14-3.89,62,62,0,0,1-6.51-5.1,11.13,11.13,0,0,1-3.1-7.29,9,9,0,0,1,.21-1.78c1.57,2.86,4.51,4.92,7.77,7.21a59.45,59.45,0,0,1,8.56,6.85A32.74,32.74,0,0,1,125.89,92S125.88,146.67,125.88,146.67ZM128,80.82a36,36,0,0,0-8-12.9H136A36,36,0,0,0,128,80.82ZM165.85,202H130.12v-8.52h37.65Zm-35.73-12.74V150.89h18.19c1.79,14.31,9,26.67,10.73,29.41v8.95Zm38.34,0h-5.2v-9.57a2,2,0,0,0-.34-1.15c-.09-.14-9.22-14.32-10.6-29.93a2.11,2.11,0,0,0-2.11-1.93H130.12s0-54.46,0-54.48.48-12.93,9.33-21.78A59.45,59.45,0,0,1,148,63.56c3.27-2.29,6.2-4.35,7.77-7.21a8.62,8.62,0,0,1,.21,1.74,11.14,11.14,0,0,1-3.1,7.34,64.7,64.7,0,0,1-6.51,5.09,2.11,2.11,0,0,0,1.14,3.89,2.15,2.15,0,0,0,1.14-.33,63.34,63.34,0,0,0,6.25-4.81c8.44,2.09,12.78,6.42,14.38,8.39-9.65,16.15-3.24,36.52-2.58,38.49C171.66,139.08,169.13,179.91,168.46,189.25Zm2.34-74.12c0-.08-6.21-18.63,1-33.27,4.61,9.16,17.06,40.43,19.53,114l-14.6,2L173,185.34C173.86,171.19,175.42,136.3,170.8,115.13Zm10.51,96.31L178.07,202l13.33-1.84V210Z"/></g></g></svg>