<svg xmlns="http://www.w3.org/2000/svg" viewBox="0 0 256 256"><defs><style>.cls-1{fill:#fff;}</style></defs><title>Ресурс 18</title><g id="Слой_2" data-name="Слой 2"><g id="Слой_1-2" data-name="Слой 1"><rect class="cls-1" width="256" height="256"/><path d="M215.43,87.23c-1.05-1.3-24.24-30.12-27.54-33.15A61.18,61.18,0,0,0,149.1,40a3.16,3.16,0,0,0-3.17,3.06c0,.09,0,.42-.06.91-1.41.93-7.64,2.72-17.9,2.72-10.82,0-16.57-1.92-17.84-2.72,0-.49-.06-.81-.06-.9A3.16,3.16,0,0,0,106.9,40c-19.29,0-33.28,9.64-38.4,13.78l-.27.22c-1.79,1.19-23.36,27.9-27.66,33.23a3.17,3.17,0,0,0,.14,4.2l21,22.25a3.23,3.23,0,0,0,3.4.79l5.8-2.16V212.84A3.17,3.17,0,0,0,74.08,216H181.92a3.17,3.17,0,0,0,3.16-3.17V112.3l5.8,2.16a3.21,3.21,0,0,0,3.4-.79l21-22.25A3.16,3.16,0,0,0,215.43,87.23ZM70.92,91.68v13.87l-6,2.24L47.23,89.11,69.05,62.82C70.75,71.28,71,86.23,70.92,91.68Zm107.83,0v118H77.25V91.73c0-2.56.2-24.72-3.13-34.35a57.47,57.47,0,0,1,29.95-11A34.11,34.11,0,0,0,107,55.88c2.87,6,8.85,13.1,21,13.14h.16c12.12-.06,18.08-7.17,21-13.14a34.11,34.11,0,0,0,2.88-9.48,57.43,57.43,0,0,1,29.95,11C178.55,67,178.72,89.12,178.75,91.7ZM128,62.69c-9.56,0-14.06-5.86-16.18-11.43C118.12,52.92,126.27,53,128,53s9.91-.09,16.21-1.75C142.07,56.83,137.57,62.68,128,62.69Zm58.95.13,21.82,26.29L191.12,107.8l-6-2.25V91.65C185,86.21,185.25,71.28,187,62.82Z"/></g></g></svg>