<svg xmlns="http://www.w3.org/2000/svg" viewBox="0 0 256 256"><defs><style>.cls-1{fill:#fff;}</style></defs><title>Ресурс 19</title><g id="Слой_2" data-name="Слой 2"><g id="Слой_1-2" data-name="Слой 1"><rect class="cls-1" width="256" height="256"/><path d="M204.3,76.92h0c-.21-.31-5.32-7.72-11.26-15.06-11.42-14.11-16-15.92-18.79-15.92H159.42l-.28,0-.27,0-.18,0h0l-.17.06-.17.06-.1,0-.13.07-.23.14-.3.23-.11.11-.47.63a1.8,1.8,0,0,0-.15.31,1.59,1.59,0,0,1-.07.2l0,.2c-.05.18-4.62,18.56-28.74,18.56-10.13,0-18-3.11-23.49-9.24a24.51,24.51,0,0,1-5.25-9.32l-.05-.2c0-.08,0-.15-.1-.26a1.38,1.38,0,0,0-.15-.3,1.08,1.08,0,0,0-.11-.18l-.06-.08-.11-.15-.26-.27a1.56,1.56,0,0,0-.2-.16l-.83-.43L97.15,46,97,46l-.16,0H81.76C79,45.94,74.39,47.75,63,61.86c-6,7.47-11.22,15-11.27,15.06a2.79,2.79,0,0,0,.6,3.79L73.45,97c-3.47,14.79,2.66,33.52,5.47,40.92,5.69,15,.38,66.48-.08,68.57v0c0,.08,0,.15-.07.31s0,.21,0,.33,0,.17,0,.31a2.77,2.77,0,0,0,.23.92,2.84,2.84,0,0,0,.33.56,2.8,2.8,0,0,0,1.8,1.06,3,3,0,0,0,.42,0h92.94a2.82,2.82,0,0,0,2.22-1.1,2.93,2.93,0,0,0,.57-1.8l-.38,0h0l.37-.14a2.3,2.3,0,0,0-.1-.54l-.08-.32-.36.09h0l.34-.19c-.75-3-5.43-53.8,0-68.15,1.39-3.67,3.42-11.78,6-24.09a2.85,2.85,0,0,0,.12-.53,4,4,0,0,0,.08-.78,50.32,50.32,0,0,0-.55-14.62c-.06-.3-.12-.6-.19-.89L203.7,80.71A2.79,2.79,0,0,0,204.3,76.92Zm-42.06-13v-.1c0-.37.07-.72.11-1.08l0-.22c0-.35.06-.69.08-1v-.12c0-.33.05-.65.07-1v-.1c0-.33,0-.66,0-1v-.18c0-.33,0-.66,0-1s0-.64,0-1V57c0-.3,0-.6,0-.89v-1c0-.29,0-.56,0-.84l0-.94c0-.26,0-.5,0-.79l-.06-1h11.72c.13,0,3.36.16,14.43,13.83,4,4.89,7.58,9.86,9.5,12.56L181.16,91l-2-8.86a2.79,2.79,0,1,0-5.44,1.26l2.92,12.64a2.84,2.84,0,0,0,.11.67l.22.79.37,1.62a45.28,45.28,0,0,1,.36,13.55,3.3,3.3,0,0,0,0,.7c-1.71,7.83-4.25,18.41-5.82,22.54-3.65,9.62-3.29,21.11-2.35,29,.05,1.5,1.16,35.07,1.49,39.51H85c.33-4.29,1.37-35.75,1.49-39.48.94-7.94,1.3-19.43-2.35-29.05-5.37-14.14-7.34-27.63-5.39-37l.31-1.34c.07-.29.15-.57.24-.85a2.18,2.18,0,0,0,.09-.6l2.93-12.7a2.79,2.79,0,0,0-4.2-3,2.75,2.75,0,0,0-1.24,1.74l-2,8.86-17-13.11c1.92-2.69,5.52-7.65,9.48-12.54C78.4,51.69,81.63,51.53,81.76,51.53H93.48l-.15,4.59v1.05c0,.3,0,.6,0,.94l0,1v.2c0,.32,0,.65,0,1v.16l.06.95v.13l.09,1,0,.22c0,.36.07.71.11,1.07v.1c0,.35.08.69.13,1.1l0,.14.15,1.09,0,.22c.05.37.11.75.18,1.15l.21,1.15.05.23c.07.38.15.76.23,1.14l0,.18c.08.36.16.72.25,1.08l0,.15.3,1.14.07.25.33,1.16,0,.11c.11.37.23.73.38,1.18l0,.12c.13.38.26.76.4,1.14l.09.23q.21.57.45,1.17c.16.38.33.76.5,1.15l.1.23c.17.37.34.74.53,1.1l.09.2c.17.34.35.68.54,1l.07.13c.2.36.4.72.61,1.08l.14.23c.22.36.44.71.67,1.06l.08.12c.21.33.44.66.7,1l.1.13c.24.34.49.67.75,1l.17.2c.27.34.54.68.83,1s.37.42.56.62c.57.62,1.17,1.21,1.78,1.77q.61.55,1.26,1.08C112.24,95.72,119.41,98,128,98c10.6,0,19-3.45,24.92-10.24.28-.33.56-.67.83-1l.16-.2c.26-.33.52-.66.76-1l.13-.18.69-1,.06-.09c.23-.35.45-.7.66-1.06l.14-.23c.21-.35.42-.71.62-1.08l.07-.14c.18-.34.36-.68.53-1l.1-.2c.18-.36.36-.73.53-1.1l.1-.24c.17-.38.34-.76.5-1.16s.3-.77.45-1.15l.09-.23c.14-.38.27-.76.4-1.14l.07-.21c.12-.36.24-.72.35-1.08l0-.12.33-1.16.07-.25.3-1.14,0-.15c.09-.36.17-.72.25-1.07l0-.2c.09-.37.17-.75.24-1.13l0-.23c.07-.39.14-.77.21-1.18s.13-.75.18-1.12l0-.22.15-1.09,0-.2C162.16,64.62,162.2,64.27,162.24,63.94ZM93.76,53.39Zm-.05,2.73Zm61.53,27.95ZM99.36,81.72Zm57.48-20.35-.58,4.85-.88,4.31-.21.78-1.12,3.5c-.09.26-.19.51-.29.77l-.07.16c-.08.21-.16.41-.25.62L153,77.42c-.07.16-.14.32-.22.47l-.14.3c-.08.16-.17.32-.28.55l-.11.2-.35.65-.05.08-.42.73-.13.2c-.1.17-.21.34-.32.51l-.17.26-.3.44-.69,1-.36.46-.17.21c-.17.22-.36.44-.54.65-4.83,5.53-11.8,8.33-20.71,8.33-1.1,0-2.2,0-3.26-.13-7.35-.62-13.22-3.37-17.44-8.19l-.54-.65-.17-.21-.35-.45-.19-.25-.32-.44-.18-.26-.31-.45-.17-.25c-.1-.17-.21-.34-.32-.51l-.12-.2c-.15-.24-.29-.48-.42-.73l-.09-.15L103.8,79l-1.22-2.58-.26-.62-.35.14.29-.3-.3-.77-1.12-3.5c-.07-.26-.14-.52-.2-.78l-.37.09h0l.34-.22c-.06-.22-.11-.45-.17-.67l-.69-3.5-.12-.77-.11-.77-.47-5.11c.36.46.73.9,1.11,1.34,4.51,5.16,13,11.32,27.84,11.32s23.33-6.16,27.85-11.32q.57-.66,1.11-1.35Zm5.26,0ZM157.6,47.2Zm-.48.94Zm-58.25,0Z"/></g></g></svg>