<svg xmlns="http://www.w3.org/2000/svg" viewBox="0 0 256 256"><defs><style>.cls-1{fill:#fff;}</style></defs><title>Ресурс 20</title><g id="Слой_2" data-name="Слой 2"><g id="Слой_1-2" data-name="Слой 1"><rect class="cls-1" width="256" height="256"/><path d="M206.48,192.26c0-.27-2.48-27.73-6.8-56.07a401.36,401.36,0,0,0-8-40.86c-4.92-18.5-9.15-23-11.91-24.77-5.94-3.82-18.4-9.57-23.85-12,0-.17,0-.29,0-.34l-.63.05-2-.88-.93-.41-1,.19c-.16,0-15.56,3-23.34,3s-23.18-2.93-23.34-3l-1-.19-.93.41-2,.88-.63-.05c0,.05,0,.17,0,.34-5.45,2.46-17.91,8.21-23.85,12-4.71,3-11.91,13.13-19.93,65.64C52,164.53,49.55,192,49.52,192.26l-.19,2.17,1.92,1a35.15,35.15,0,0,0,15,3.61A25.19,25.19,0,0,0,73.55,198l2-.62.28-2.08c3.15-23.56,8.42-56.72,12.3-72.46.55,6,.51,26.92-2.43,37.72l-.79,2.88,2.8,1c.47.18,6.7,4.21,40.28,4.21s39.81-4,40.28-4.21l2.8-1-.79-2.88c-2.94-10.8-3-31.75-2.43-37.72,4.13,16.74,9.26,49.69,12.3,72.46l.28,2.08,2,.62a25.19,25.19,0,0,0,7.34,1.05,35.15,35.15,0,0,0,15-3.61l1.92-1ZM149.41,64.14c-.19,7.54-1.57,21-8.57,28.55a18.11,18.11,0,0,1-25.68,0c-7-7.51-8.38-21-8.57-28.55,5.11.89,15.2,2.51,21.41,2.51S144.3,65,149.41,64.14Zm40.38,128.37a20.41,20.41,0,0,1-3.45-.29c-.75-5.49-2.84-20.34-5.38-35.83-6.54-39.83-9.68-45-10.71-46.68l-2.58-4.25-2.88,4.06c-3.73,5.26-4.78,18.92-3.09,40.6,1.22,15.67,1.28,8.19,1.47,9-6,1.33-14,3-35.17,3s-29.21-1.7-35.17-3c-.55-1,.25,6.67,1.47-9,1.68-21.68.64-35.34-3.09-40.6l-2.88-4.06-2.59,4.25c-1,1.69-4.16,6.85-10.7,46.68-2.55,15.49-4.63,30.34-5.38,35.82a19.42,19.42,0,0,1-3.45.3,28.35,28.35,0,0,1-10-2c.69-7.19,3-30,6.54-53.33,7.67-50.23,14.44-59.47,17-61.12,4.71-3,14.29-7.57,20.29-10.33.36,8.67,2.26,22.79,10.28,31.41a24.66,24.66,0,0,0,35.28,0c8-8.62,9.92-22.74,10.28-31.41,6,2.76,15.58,7.3,20.29,10.33,2.56,1.65,9.33,10.88,17,61.09,3.57,23.38,5.85,46.17,6.54,53.36A28.35,28.35,0,0,1,189.79,192.51Z"/></g></g></svg>