<svg xmlns="http://www.w3.org/2000/svg" viewBox="0 0 256 256"><defs><style>.cls-1{fill:#fff;}</style></defs><title>Ресурс 21</title><g id="Слой_2" data-name="Слой 2"><g id="Слой_1-2" data-name="Слой 1"><rect class="cls-1" width="256" height="256"/><path d="M197.09,194.67c0-.24-2.18-24.41-6-49.36a353.77,353.77,0,0,0-7.06-36c-4.33-16.29-8.06-20.24-10.48-21.8a154.83,154.83,0,0,0-14.91-7.79,13.67,13.67,0,0,0,1.58-6.39c0-4.12-2-8-5.92-11.58-4.08-3.58-13.1-6.43-26.31-6.43h0c-13.21,0-21.62,2.39-26.3,6.42h0c-3.89,3.57-5.89,7.47-5.93,11.59a13.86,13.86,0,0,0,1.56,6.4,154.41,154.41,0,0,0-14.89,7.78C78.29,90.2,72,99.09,64.9,145.31c-3.81,24.95-6,49.12-6,49.36l-.16,1.91,1.68.89a31,31,0,0,0,13.17,3.18,22,22,0,0,0,6.46-.93l1.77-.54.25-1.83c2.77-20.74,7.41-49.93,10.83-63.8.48,5.27.45,23.7-2.14,33.21l-.69,2.54,2.46.92c.41.15,5.9,3.7,35.46,3.7s35.05-3.55,35.46-3.7l2.46-.92-.69-2.54c-2.59-9.51-2.62-27.94-2.14-33.21,3.63,14.74,8.15,43.75,10.83,63.8l.25,1.83,1.77.54a22,22,0,0,0,6.46.93,31,31,0,0,0,13.17-3.18l1.68-.89ZM155.79,71.61a8.71,8.71,0,0,1,.21,1.75A9.69,9.69,0,0,1,154.82,78l-2.26-1c0-.15-.58-.26-.58-.26l-.63-.28A16,16,0,0,0,155.79,71.61Zm-28.19,19c-2.42-2.42-6-5.84-7.23-7.11a70.28,70.28,0,0,0,7.63.55,71.5,71.5,0,0,0,7.94-.58c-.19.11-.37.24-.57.35C134.91,84.37,130.66,88,127.6,90.65Zm.4-12.32a117.29,117.29,0,0,1-16-1.8c-2.12-1.54-4.47-3.2-5.05-3.66,3.88-.37,11.05-.72,21-.72s17.13.35,21,.72c-.59.46-2.93,2.12-5,3.66A117.11,117.11,0,0,1,128,78.33ZM104.3,65.18c1.79-2.07,7.19-5.6,23.7-5.6h0c16.17,0,21.64,3.44,23.53,5.42a3.73,3.73,0,0,1,.81,4c-.26-.05-4-.49-6.34-.65-4.81-.3-11.21-.47-18-.47s-13.19.17-18,.47c-2.38.16-6.07.6-6.33.65A3.42,3.42,0,0,1,104.3,65.18ZM100,73.4a9.11,9.11,0,0,1,.21-1.79,16,16,0,0,0,4.44,4.79l-.63.28s-.57.11-.58.26l-2.26,1A9.68,9.68,0,0,1,100,73.4Zm82.4,121.49a17.64,17.64,0,0,1-3-.26c-.66-4.83-2.5-17.9-4.74-31.53-5.75-35.07-8.52-39.61-9.42-41.1l-2.28-3.74-2.53,3.57c-3.29,4.63-4.21,16.66-2.72,35.75.36,4.62.6,6.94.77,8-5.21,1.15-12.4,2.55-30.44,2.55-18.22,0-25.38-1.42-30.59-2.58a65.09,65.09,0,0,0,.92-8c1.49-19.08.57-31.11-2.72-35.74l-2.53-3.57L90.8,122c-.9,1.49-3.67,6-9.42,41.1-2.24,13.63-4.08,26.7-4.74,31.53a17.64,17.64,0,0,1-3,.26,24.89,24.89,0,0,1-8.76-1.76c.6-6.33,2.61-26.37,5.75-46.95,6.76-44.22,12.72-52.36,15-53.8a156.87,156.87,0,0,1,15.1-7.82l.1.08.31-.09a63.38,63.38,0,0,0,6.26,4.8,2.1,2.1,0,0,0,1.14.34,2.12,2.12,0,0,0,1.15-3.9,46.45,46.45,0,0,1-4.25-3.17,28.43,28.43,0,0,1,3.78-.74c1.06.19,2.38.41,3.82.64a42.43,42.43,0,0,1,3.58,3.17c.46.46,6.86,6.42,8.08,7.63-.07.07,2.17,4.22,4.66,1,.4-.46,9.72-8.19,10.16-8.62A42.43,42.43,0,0,1,143,82.52c1.44-.23,2.76-.45,3.82-.64,0,.13.65.3,1,.29a7.24,7.24,0,0,1,2.75.49,48.34,48.34,0,0,1-4.21,3.13,2.12,2.12,0,0,0,1.15,3.9,2.1,2.1,0,0,0,1.14-.34A59.44,59.44,0,0,0,154.42,85c.14-.22.32-.41.47-.63a159.91,159.91,0,0,1,15.55,8c2.25,1.44,8.21,9.58,15,53.78,3.15,20.58,5.16,40.64,5.76,47A24.94,24.94,0,0,1,182.4,194.89Z"/></g></g></svg>